<mxfile host="app.diagrams.net" modified="2024-04-16T13:17:02.299Z" agent="Mozilla/5.0 (Windows NT 10.0; Win64; x64) AppleWebKit/537.36 (KHTML, like Gecko) Chrome/123.0.0.0 Safari/537.36" version="24.2.5" etag="_Wlv7aMSMjJtnFT3z5X4" type="github">
  <diagram name="第 1 页" id="n-Bup6jwG0eD0ZFJEZBM">
    <mxGraphModel>
      <root>
        <mxCell id="0" />
        <mxCell id="1" parent="0" />
      </root>
    </mxGraphModel>
  </diagram>
</mxfile>
